<?xml version="1.0" encoding="utf-8"?>
<!-- Generator: Adobe Illustrator 23.0.0, SVG Export Plug-In . SVG Version: 6.00 Build 0)  -->
<svg version="1.1" xmlns="http://www.w3.org/2000/svg" xmlns:xlink="http://www.w3.org/1999/xlink" x="0px" y="0px"
	 viewBox="0 0 100 100" style="enable-background:new 0 0 100 100;" xml:space="preserve">
<style type="text/css">
	.st0{display:none;}
	.st1{display:inline;fill:#5ABCDF;}
	.st2{display:inline;}
	.st3{fill:#D7E4E8;}
	.st4{fill:none;stroke:#D7E4E8;stroke-width:6;stroke-miterlimit:10;}
	.st5{fill:none;stroke:#D7E4E8;stroke-width:4;stroke-miterlimit:10;}
	.st6{fill:none;stroke:#D7E4E8;stroke-width:5;stroke-miterlimit:10;}
</style>
<g id="Livello_1" class="st0">
	<polygon class="st1" points="46,48.51 46,88 6.51,48.51 46,9.03 	"/>
</g>
<g id="Livello_2" class="st0">
</g>
<g id="Livello_3" class="st0">
	<g class="st2">
		<g>
			<circle class="st3" cx="49.5" cy="39.5" r="17.5"/>
			<path class="st3" d="M74,84c0,0.5-12.02,6-25,6s-22-5-22-5.5C27,71.52,37.52,55,50.5,55S74,71.02,74,84z"/>
		</g>
		<ellipse class="st4" cx="50" cy="50.5" rx="39" ry="39.5"/>
	</g>
	<g class="st2">
		<g>
			<circle class="st3" cx="49.5" cy="39.5" r="17.5"/>
			<path class="st3" d="M74,84c0,0.5-12.02,6-25,6s-22-5-22-5.5C27,71.52,37.52,55,50.5,55S74,71.02,74,84z"/>
		</g>
		<ellipse class="st4" cx="50" cy="50.5" rx="39" ry="39.5"/>
	</g>
</g>
<g id="Livello_6">
	<polyline class="st5" points="19,82 37,65 56,79 82,53 	"/>
	<polygon class="st6" points="74,52 85,51 83,61 	"/>
</g>
<g id="Livello_4">
	<line class="st4" x1="11" y1="11" x2="11" y2="88"/>
	<line class="st4" x1="91" y1="88" x2="8" y2="88"/>
</g>
<g id="Livello_5">
	<g>
		<path class="st3" d="M53.6,33.38L53.6,33.38c0.72-1.48,2.53-2.11,4.01-1.39l5.4,2.62c1.48,0.72,2.11,2.53,1.39,4.01v0
			c-0.72,1.48-2.53,2.11-4.01,1.39l-5.4-2.62C53.51,36.67,52.88,34.86,53.6,33.38z"/>
		<circle class="st3" cx="52" cy="20" r="8"/>
		<path class="st3" d="M49.36,53.95L49.36,53.95c-3.01-0.27-5.26-2.95-5-5.96l1.32-14.94c0.27-3.01,2.95-5.26,5.96-5l0,0
			c3.01,0.27,5.26,2.95,5,5.96l-1.32,14.94C55.06,51.97,52.37,54.22,49.36,53.95z"/>
		<path class="st3" d="M59.76,39.24L59.76,39.24c-1.17-1.17-1.17-3.08,0-4.24L64,30.76c1.17-1.17,3.08-1.17,4.24,0l0,0
			c1.17,1.17,1.17,3.08,0,4.24L64,39.24C62.83,40.41,60.92,40.41,59.76,39.24z"/>
		<path class="st3" d="M40.41,37.58L40.41,37.58c-0.98-1.33-0.69-3.22,0.63-4.19l4.83-3.56c1.33-0.98,3.22-0.69,4.19,0.63l0,0
			c0.98,1.33,0.69,3.22-0.63,4.19l-4.83,3.56C43.28,39.19,41.39,38.91,40.41,37.58z"/>
		<path class="st3" d="M39.7,34.57L39.7,34.57c0.94-1.36,2.81-1.71,4.17-0.77l4.94,3.4c1.36,0.94,1.71,2.81,0.77,4.17l0,0
			c-0.94,1.36-2.81,1.71-4.17,0.77l-4.94-3.4C39.11,37.81,38.76,35.93,39.7,34.57z"/>
		<path class="st3" d="M52.25,49.31L52.25,49.31c1.29-1.03,3.19-0.82,4.22,0.47l4.39,5.49c1.03,1.29,0.82,3.19-0.47,4.22l0,0
			c-1.29,1.03-3.19,0.82-4.22-0.47l-4.39-5.49C50.75,52.24,50.96,50.34,52.25,49.31z"/>
		<path class="st3" d="M47.93,48.97L47.93,48.97c1.48,0.72,2.11,2.53,1.39,4.01l-3.25,6.69c-0.72,1.48-2.53,2.11-4.01,1.39l0,0
			c-1.48-0.72-2.11-2.53-1.39-4.01l3.25-6.69C44.64,48.87,46.45,48.25,47.93,48.97z"/>
		<path class="st3" d="M34.6,55.38L34.6,55.38c0.72-1.48,2.53-2.11,4.01-1.39l5.4,2.62c1.48,0.72,2.11,2.53,1.39,4.01l0,0
			c-0.72,1.48-2.53,2.11-4.01,1.39l-5.4-2.62C34.51,58.67,33.88,56.86,34.6,55.38z"/>
		<path class="st3" d="M58.54,54.89L58.54,54.89c1.62-0.33,3.21,0.72,3.54,2.34l1.46,7.11c0.33,1.62-0.72,3.21-2.34,3.54h0
			c-1.62,0.33-3.21-0.72-3.54-2.34l-1.46-7.11C55.87,56.81,56.92,55.22,58.54,54.89z"/>
	</g>
</g>
</svg>
